<svg width="46" height="32" viewBox="0 0 46 32" fill="none" xmlns="http://www.w3.org/2000/svg">
<path d="M22.9998 24.9999C17.5481 24.9999 13.135 21.3306 12.7289 16.6806L5.1892 11.6138C4.19805 12.695 3.28596 13.8381 2.54996 15.0881C2.38554 15.3709 2.29988 15.6834 2.29988 16.0003C2.29988 16.3172 2.38554 16.6297 2.54996 16.9125C6.44773 23.5255 14.1642 27.9999 22.9998 27.9999C24.9339 27.9999 26.7998 27.7499 28.5981 27.3461L24.8685 24.8368C24.2526 24.9403 23.6271 24.9948 22.9998 24.9999ZM45.5555 28.6311L37.6098 23.2912C40.0234 21.5224 42.0085 19.3539 43.4496 16.9119C43.614 16.6291 43.6997 16.3166 43.6997 15.9997C43.6997 15.6828 43.614 15.3703 43.4496 15.0875C39.5518 8.47445 31.8353 4.00012 22.9998 4.00012C19.2993 4.00402 15.6589 4.8141 12.4112 6.35635L3.26727 0.210787C3.14803 0.130105 3.01168 0.0706448 2.86601 0.0358044C2.72033 0.000963916 2.56819 -0.00857399 2.41827 0.00773569C2.26835 0.0240454 2.1236 0.065883 1.99229 0.130858C1.86097 0.195832 1.74567 0.282671 1.65296 0.38641L0.242063 1.96577C0.0548995 2.17513 -0.028967 2.44057 0.00890824 2.70369C0.0467835 2.96682 0.203299 3.20609 0.444031 3.36888L42.7323 31.7892C42.8515 31.8699 42.9879 31.9294 43.1335 31.9642C43.2792 31.999 43.4314 32.0086 43.5813 31.9923C43.7312 31.976 43.876 31.9341 44.0073 31.8691C44.1386 31.8042 44.2539 31.7173 44.3466 31.6136L45.7582 30.0342C45.9453 29.8248 46.029 29.5593 45.991 29.2962C45.953 29.033 45.7964 28.7938 45.5555 28.6311ZM32.3507 19.7562L29.526 17.8575C29.7639 17.2597 29.8901 16.6325 29.8998 16C29.9138 15.0739 29.6778 14.1579 29.2109 13.3255C28.7439 12.4931 28.059 11.7675 27.211 11.2071C26.3631 10.6466 25.3758 10.2669 24.3285 10.0984C23.2812 9.92991 22.203 9.97736 21.1806 10.2369C21.614 10.7476 21.8485 11.3653 21.8498 12C21.8391 12.2112 21.8019 12.4208 21.7391 12.625L16.4484 9.06945C18.2862 7.73396 20.6047 7.00163 22.9998 7.00009C24.3592 6.99944 25.7054 7.23178 26.9614 7.68383C28.2175 8.13589 29.3588 8.79879 30.32 9.63464C31.2812 10.4705 32.0436 11.4629 32.5634 12.5551C33.0833 13.6473 33.3505 14.8179 33.3497 16C33.3497 17.3519 32.9695 18.6118 32.3507 19.7568V19.7562Z" fill="black"/>
</svg>
