<svg width="46" height="32" viewBox="0 0 46 32" fill="none" xmlns="http://www.w3.org/2000/svg">
<path d="M45.7221 14.7833C41.3913 5.96583 32.8173 0 23 0C13.1827 0 4.60635 5.97 0.277874 14.7842C0.0951844 15.1613 0 15.5779 0 16.0004C0 16.423 0.0951844 16.8396 0.277874 17.2167C4.60875 26.0342 13.1827 32 23 32C32.8173 32 41.3936 26.03 45.7221 17.2158C45.9048 16.8387 46 16.4221 46 15.9996C46 15.577 45.9048 15.1604 45.7221 14.7833V14.7833ZM23 28C20.7255 28 18.5021 27.2962 16.6109 25.9776C14.7198 24.6591 13.2458 22.7849 12.3754 20.5922C11.505 18.3995 11.2772 15.9867 11.7209 13.6589C12.1647 11.3311 13.2599 9.19295 14.8683 7.51472C16.4766 5.83649 18.5257 4.6936 20.7565 4.23058C22.9872 3.76755 25.2995 4.00519 27.4009 4.91345C29.5022 5.8217 31.2983 7.35977 32.5619 9.33316C33.8256 11.3065 34.5 13.6266 34.5 16C34.5008 17.5761 34.2038 19.1369 33.6261 20.5931C33.0485 22.0494 32.2014 23.3725 31.1334 24.487C30.0654 25.6014 28.7973 26.4853 27.4017 27.0881C26.0062 27.6909 24.5104 28.0008 23 28V28ZM23 8C22.3157 8.00998 21.6358 8.11621 20.9787 8.31583C21.5203 9.08389 21.7803 10.0291 21.7113 10.98C21.6424 11.9308 21.2492 12.8245 20.603 13.4988C19.9568 14.173 19.1004 14.5834 18.1891 14.6553C17.2778 14.7272 16.3721 14.456 15.636 13.8908C15.2169 15.5022 15.2925 17.2101 15.8523 18.7742C16.4121 20.3383 17.4279 21.6798 18.7567 22.61C20.0854 23.5401 21.6603 24.0121 23.2595 23.9593C24.8588 23.9066 26.4019 23.3319 27.6718 22.3161C28.9416 21.3003 29.8742 19.8945 30.3383 18.2967C30.8024 16.6988 30.7746 14.9893 30.2588 13.4088C29.7431 11.8283 28.7653 10.4564 27.4632 9.48609C26.161 8.51582 24.6001 7.99607 23 8V8Z" fill="black"/>
</svg>
